<?xml version="1.0" encoding="utf-8"?>
<!-- Generator: Adobe Illustrator 28.2.0, SVG Export Plug-In . SVG Version: 6.00 Build 0)  -->
<svg version="1.1" xmlns="http://www.w3.org/2000/svg" xmlns:xlink="http://www.w3.org/1999/xlink" x="0px" y="0px"
	 viewBox="0 0 72 72" style="enable-background:new 0 0 72 72;" xml:space="preserve">
  <title>Handdrawn right angle arrow</title>
  <desc>Handdrawn right-angle arrow for pointing around a corner or directing attention to an adjacent element.</desc>
<style type="text/css">
	.st0{fill:#070154;}
	.st1{display:none;}
	.st2{display:inline;fill:none;stroke:#070154;stroke-width:2;stroke-linecap:round;stroke-miterlimit:10;}
	.st3{display:inline;fill:none;stroke:#070154;stroke-width:2;stroke-linecap:round;stroke-linejoin:round;stroke-miterlimit:10;}
	.st4{display:inline;fill:none;stroke:#070154;stroke-width:2.5;stroke-linecap:round;stroke-linejoin:round;stroke-miterlimit:10;}
	.st5{display:inline;}
	.st6{fill:none;stroke:#070154;stroke-width:2;stroke-linecap:round;stroke-linejoin:round;}
	.st7{fill:none;stroke:#070154;stroke-width:2;stroke-linecap:round;stroke-linejoin:round;stroke-dasharray:1.9863,2.9795;}
</style>
<g id="artwork">
	<path class="st0" d="M53.7,46.6c-2-2.2-9.7-10-10-10.3c-0.4-0.4-1-0.4-1.4,0c-0.4,0.4-0.4,1,0,1.4c0.1,0.1,5.5,5.5,8.5,8.6
		l-28.4,0.2c-0.6,0-1-0.1-1.3-0.4c-0.5-0.5-0.5-1.4-0.5-1.4c0,0,0-0.1,0-0.1C20.2,36.8,20,15.1,20,14.8c0-0.5-0.5-1-1-1c0,0,0,0,0,0
		c-0.6,0-1,0.5-1,1c0,0.2,0.2,21.9,0.7,29.9c0,0.3,0,1.7,1,2.8c0.5,0.5,1.3,1.1,2.7,1.1l27.8-0.2c-2.9,2.6-7.9,7.1-9.1,8
		c-0.4,0.3-0.5,1-0.2,1.4c0.2,0.2,0.5,0.4,0.8,0.4c0.2,0,0.4-0.1,0.6-0.2c1.7-1.4,10.8-9.6,11.2-9.9C54.1,47.6,54.1,47,53.7,46.6z"
		/>
</g>
<g id="stroke" class="st1">
	<path class="st3" d="M19,14.8c0,0,0.2,21.9,0.7,29.9c0,0-0.1,2.8,2.8,2.8l29.8-0.3"/>
	<path class="st3" d="M43,37c0,0,8,8,10,10.3c0,0-9.5,8.5-11.2,9.9"/>
</g>
</svg>
