<?xml version="1.0" encoding="utf-8"?>
<!-- Generator: Adobe Illustrator 28.2.0, SVG Export Plug-In . SVG Version: 6.00 Build 0)  -->
<svg version="1.1" id="whiteboard_grid" xmlns="http://www.w3.org/2000/svg" xmlns:xlink="http://www.w3.org/1999/xlink" x="0px"
	 y="0px" viewBox="0 0 255 255" style="enable-background:new 0 0 255 255;" xml:space="preserve">
  <title>Handdrawn whiteboard grid</title>
  <desc>Handdrawn whiteboard-style grid background for sketching, framing, or organizing ideas.</desc>
<style type="text/css">
	.st0{fill:#CED7E6;}
</style>
<path class="st0" d="M0,0h3v3H0V0z M0,21h3v-3H0V21z M0,39h3v-3H0V39z M0,57h3v-3H0V57z M0,75h3v-3H0V75z M0,93h3v-3H0V93z M0,111h3
	v-3H0V111z M0,129h3v-3H0V129z M0,147h3v-3H0V147z M0,165h3v-3H0V165z M0,183h3v-3H0V183z M0,201h3v-3H0V201z M0,219h3v-3H0V219z
	 M0,237h3v-3H0V237z M0,255h3v-3H0V255z M18,3h3V0h-3V3z M18,21h3v-3h-3V21z M18,39h3v-3h-3V39z M18,57h3v-3h-3V57z M18,75h3v-3h-3
	V75z M18,93h3v-3h-3V93z M18,111h3v-3h-3V111z M18,129h3v-3h-3V129z M18,147h3v-3h-3V147z M18,165h3v-3h-3V165z M18,183h3v-3h-3V183
	z M18,201h3v-3h-3V201z M18,219h3v-3h-3V219z M18,237h3v-3h-3V237z M18,255h3v-3h-3V255z M36,3h3V0h-3V3z M36,21h3v-3h-3V21z M36,39
	h3v-3h-3V39z M36,57h3v-3h-3V57z M36,75h3v-3h-3V75z M36,93h3v-3h-3V93z M36,111h3v-3h-3V111z M36,129h3v-3h-3V129z M36,147h3v-3h-3
	V147z M36,165h3v-3h-3V165z M36,183h3v-3h-3V183z M36,201h3v-3h-3V201z M36,219h3v-3h-3V219z M36,237h3v-3h-3V237z M36,255h3v-3h-3
	V255z M54,3h3V0h-3V3z M54,21h3v-3h-3V21z M54,39h3v-3h-3V39z M54,57h3v-3h-3V57z M54,75h3v-3h-3V75z M54,93h3v-3h-3V93z M54,111h3
	v-3h-3V111z M54,129h3v-3h-3V129z M54,147h3v-3h-3V147z M54,165h3v-3h-3V165z M54,183h3v-3h-3V183z M54,201h3v-3h-3V201z M54,219h3
	v-3h-3V219z M54,237h3v-3h-3V237z M54,255h3v-3h-3V255z M72,3h3V0h-3V3z M72,21h3v-3h-3V21z M72,39h3v-3h-3V39z M72,57h3v-3h-3V57z
	 M72,75h3v-3h-3V75z M72,93h3v-3h-3V93z M72,111h3v-3h-3V111z M72,129h3v-3h-3V129z M72,147h3v-3h-3V147z M72,165h3v-3h-3V165z
	 M72,183h3v-3h-3V183z M72,201h3v-3h-3V201z M72,219h3v-3h-3V219z M72,237h3v-3h-3V237z M72,255h3v-3h-3V255z M90,3h3V0h-3V3z
	 M90,21h3v-3h-3V21z M90,39h3v-3h-3V39z M90,57h3v-3h-3V57z M90,75h3v-3h-3V75z M90,93h3v-3h-3V93z M90,111h3v-3h-3V111z M90,129h3
	v-3h-3V129z M90,147h3v-3h-3V147z M90,165h3v-3h-3V165z M90,183h3v-3h-3V183z M90,201h3v-3h-3V201z M90,219h3v-3h-3V219z M90,237h3
	v-3h-3V237z M90,255h3v-3h-3V255z M108,3h3V0h-3V3z M108,21h3v-3h-3V21z M108,39h3v-3h-3V39z M108,57h3v-3h-3V57z M108,75h3v-3h-3
	V75z M108,93h3v-3h-3V93z M108,111h3v-3h-3V111z M108,129h3v-3h-3V129z M108,147h3v-3h-3V147z M108,165h3v-3h-3V165z M108,183h3v-3
	h-3V183z M108,201h3v-3h-3V201z M108,219h3v-3h-3V219z M108,237h3v-3h-3V237z M108,255h3v-3h-3V255z M126,3h3V0h-3V3z M126,21h3v-3
	h-3V21z M126,39h3v-3h-3V39z M126,57h3v-3h-3V57z M126,75h3v-3h-3V75z M126,93h3v-3h-3V93z M126,111h3v-3h-3V111z M126,129h3v-3h-3
	V129z M126,147h3v-3h-3V147z M126,165h3v-3h-3V165z M126,183h3v-3h-3V183z M126,201h3v-3h-3V201z M126,219h3v-3h-3V219z M126,237h3
	v-3h-3V237z M126,255h3v-3h-3V255z M144,3h3V0h-3V3z M144,21h3v-3h-3V21z M144,39h3v-3h-3V39z M144,57h3v-3h-3V57z M144,75h3v-3h-3
	V75z M144,93h3v-3h-3V93z M144,111h3v-3h-3V111z M144,129h3v-3h-3V129z M144,147h3v-3h-3V147z M144,165h3v-3h-3V165z M144,183h3v-3
	h-3V183z M144,201h3v-3h-3V201z M144,219h3v-3h-3V219z M144,237h3v-3h-3V237z M144,255h3v-3h-3V255z M162,3h3V0h-3V3z M162,21h3v-3
	h-3V21z M162,39h3v-3h-3V39z M162,57h3v-3h-3V57z M162,75h3v-3h-3V75z M162,93h3v-3h-3V93z M162,111h3v-3h-3V111z M162,129h3v-3h-3
	V129z M162,147h3v-3h-3V147z M162,165h3v-3h-3V165z M162,183h3v-3h-3V183z M162,201h3v-3h-3V201z M162,219h3v-3h-3V219z M162,237h3
	v-3h-3V237z M162,255h3v-3h-3V255z M180,3h3V0h-3V3z M180,21h3v-3h-3V21z M180,39h3v-3h-3V39z M180,57h3v-3h-3V57z M180,75h3v-3h-3
	V75z M180,93h3v-3h-3V93z M180,111h3v-3h-3V111z M180,129h3v-3h-3V129z M180,147h3v-3h-3V147z M180,165h3v-3h-3V165z M180,183h3v-3
	h-3V183z M180,201h3v-3h-3V201z M180,219h3v-3h-3V219z M180,237h3v-3h-3V237z M180,255h3v-3h-3V255z M198,3h3V0h-3V3z M198,21h3v-3
	h-3V21z M198,39h3v-3h-3V39z M198,57h3v-3h-3V57z M198,75h3v-3h-3V75z M198,93h3v-3h-3V93z M198,111h3v-3h-3V111z M198,129h3v-3h-3
	V129z M198,147h3v-3h-3V147z M198,165h3v-3h-3V165z M198,183h3v-3h-3V183z M198,201h3v-3h-3V201z M198,219h3v-3h-3V219z M198,237h3
	v-3h-3V237z M198,255h3v-3h-3V255z M216,3h3V0h-3V3z M216,21h3v-3h-3V21z M216,39h3v-3h-3V39z M216,57h3v-3h-3V57z M216,75h3v-3h-3
	V75z M216,93h3v-3h-3V93z M216,111h3v-3h-3V111z M216,129h3v-3h-3V129z M216,147h3v-3h-3V147z M216,165h3v-3h-3V165z M216,183h3v-3
	h-3V183z M216,201h3v-3h-3V201z M216,219h3v-3h-3V219z M216,237h3v-3h-3V237z M216,255h3v-3h-3V255z M234,3h3V0h-3V3z M234,21h3v-3
	h-3V21z M234,39h3v-3h-3V39z M234,57h3v-3h-3V57z M234,75h3v-3h-3V75z M234,93h3v-3h-3V93z M234,111h3v-3h-3V111z M234,129h3v-3h-3
	V129z M234,147h3v-3h-3V147z M234,165h3v-3h-3V165z M234,183h3v-3h-3V183z M234,201h3v-3h-3V201z M234,219h3v-3h-3V219z M234,237h3
	v-3h-3V237z M234,255h3v-3h-3V255z M252,3h3V0h-3V3z M252,21h3v-3h-3V21z M252,39h3v-3h-3V39z M252,57h3v-3h-3V57z M252,75h3v-3h-3
	V75z M252,93h3v-3h-3V93z M252,111h3v-3h-3V111z M252,129h3v-3h-3V129z M252,147h3v-3h-3V147z M252,165h3v-3h-3V165z M252,183h3v-3
	h-3V183z M252,201h3v-3h-3V201z M252,219h3v-3h-3V219z M252,237h3v-3h-3V237z M252,255h3v-3h-3V255z"/>
</svg>
